HIERARCHY
ROOT hip
{
  OFFSET 0 0 0
  CHANNELS 6 Xposition Yposition Zposition Zrotation Yrotation Xrotation
  JOINT abdomen
  {
    OFFSET 0 20.6881 -0.73152
    CHANNELS 3 Zrotation Xrotation Yrotation
    JOINT chest
    {
      OFFSET 0 11.7043 -0.48768
      CHANNELS 3 Zrotation Xrotation Yrotation
      JOINT neck
      {
        OFFSET 0 22.1894 -2.19456
        CHANNELS 3 Zrotation Xrotation Yrotation
        JOINT head
        {
          OFFSET -0.24384 7.07133 1.2192
          CHANNELS 3 Zrotation Xrotation Yrotation
          JOINT leftEye
          {
            OFFSET 4.14528 8.04674 8.04672
            CHANNELS 3 Zrotation Xrotation Yrotation
            End Site
            {
              OFFSET 1 0 0
            }
          }
          JOINT rightEye
          {
            OFFSET -3.6576 8.04674 8.04672
            CHANNELS 3 Zrotation Xrotation Yrotation
            End Site
            {
              OFFSET 1 0 0
            }
          }
        }
      }
      JOINT rCollar
      {
        OFFSET -2.68224 19.2634 -4.8768
        CHANNELS 3 Zrotation Xrotation Yrotation
        JOINT rShldr
        {
          OFFSET -8.77824 -1.95073 1.46304
          CHANNELS 3 Zrotation Xrotation Yrotation
          JOINT rForeArm
          {
            OFFSET -28.1742 -1.7115 0.48768
            CHANNELS 3 Zrotation Xrotation Yrotation
            JOINT rHand
            {
              OFFSET -22.5879 0.773209 7.07136
              CHANNELS 3 Zrotation Xrotation Yrotation
              JOINT rThumb1
              {
                OFFSET -1.2192 -0.487915 3.41376
                CHANNELS 3 Zrotation Xrotation Yrotation
                JOINT rThumb2
                {
                  OFFSET -3.37035 -0.52449 3.41376
                  CHANNELS 3 Zrotation Xrotation Yrotation
                  End Site
                  {
                    OFFSET -1.78271 -1.18214 1.43049
                  }
                }
              }
              JOINT rIndex1
              {
                OFFSET -7.75947 0.938293 5.60832
                CHANNELS 3 Zrotation Xrotation Yrotation
                JOINT rIndex2
                {
                  OFFSET -2.54057 -0.884171 1.56538
                  CHANNELS 3 Zrotation Xrotation Yrotation
                  End Site
                  {
                    OFFSET -1.62519 -0.234802 1.16502
                  }
                }
              }
              JOINT rMid1
              {
                OFFSET -8.24714 1.18213 3.41376
                CHANNELS 3 Zrotation Xrotation Yrotation
                JOINT rMid2
                {
                  OFFSET -3.10165 -0.590103 1.0647
                  CHANNELS 3 Zrotation Xrotation Yrotation
                  End Site
                  {
                    OFFSET -2.48547 -0.328903 0.83742
                  }
                }
              }
              JOINT rRing1
              {
                OFFSET -8.82822 0.546677 1.51678
                CHANNELS 3 Zrotation Xrotation Yrotation
                JOINT rRing2
                {
                  OFFSET -2.60934 -0.819778 -0.0198488
                  CHANNELS 3 Zrotation Xrotation Yrotation
                  End Site
                  {
                    OFFSET -2.33842 -0.294052 0.168128
                  }
                }
              }
              JOINT rPinky1
              {
                OFFSET -8.27202 -0.0477905 -0.4584
                CHANNELS 3 Zrotation Xrotation Yrotation
                JOINT rPinky2
                {
                  OFFSET -1.82734 -0.647385 -0.700984
                  CHANNELS 3 Zrotation Xrotation Yrotation
                  End Site
                  {
                    OFFSET -1.69225 -0.51767 -0.607171
                  }
                }
              }
            }
          }
        }
      }
      JOINT lCollar
      {
        OFFSET 2.68224 19.2634 -4.8768
        CHANNELS 3 Zrotation Xrotation Yrotation
        JOINT lShldr
        {
          OFFSET 8.77824 -1.95073 1.46304
          CHANNELS 3 Zrotation Xrotation Yrotation
          JOINT lForeArm
          {
            OFFSET 28.1742 -1.7115 0.48768
            CHANNELS 3 Zrotation Xrotation Yrotation
            JOINT lHand
            {
              OFFSET 22.5879 0.773209 7.07136
              CHANNELS 3 Zrotation Xrotation Yrotation
              JOINT lThumb1
              {
                OFFSET 1.2192 -0.487915 3.41376
                CHANNELS 3 Zrotation Xrotation Yrotation
                JOINT lThumb2
                {
                  OFFSET 3.37035 -0.52449 3.41376
                  CHANNELS 3 Zrotation Xrotation Yrotation
                  End Site
                  {
                    OFFSET 1.78271 -1.18214 1.43049
                  }
                }
              }
              JOINT lIndex1
              {
                OFFSET 7.75947 0.938293 5.60832
                CHANNELS 3 Zrotation Xrotation Yrotation
                JOINT lIndex2
                {
                  OFFSET 2.54057 -0.884171 1.56538
                  CHANNELS 3 Zrotation Xrotation Yrotation
                  End Site
                  {
                    OFFSET 1.62519 -0.234802 1.16502
                  }
                }
              }
              JOINT lMid1
              {
                OFFSET 8.24714 1.18213 3.41376
                CHANNELS 3 Zrotation Xrotation Yrotation
                JOINT lMid2
                {
                  OFFSET 3.10165 -0.590103 1.0647
                  CHANNELS 3 Zrotation Xrotation Yrotation
                  End Site
                  {
                    OFFSET 2.48547 -0.328903 0.83742
                  }
                }
              }
              JOINT lRing1
              {
                OFFSET 8.82822 0.546677 1.51678
                CHANNELS 3 Zrotation Xrotation Yrotation
                JOINT lRing2
                {
                  OFFSET 2.60934 -0.819778 -0.0198488
                  CHANNELS 3 Zrotation Xrotation Yrotation
                  End Site
                  {
                    OFFSET 2.33842 -0.294052 0.168128
                  }
                }
              }
              JOINT lPinky1
              {
                OFFSET 8.27202 -0.0477905 -0.4584
                CHANNELS 3 Zrotation Xrotation Yrotation
                JOINT lPinky2
                {
                  OFFSET 1.82734 -0.647385 -0.700984
                  CHANNELS 3 Zrotation Xrotation Yrotation
                  End Site
                  {
                    OFFSET 1.69225 -0.51767 -0.607171
                  }
                }
              }
            }
          }
        }
      }
    }
  }
  JOINT rButtock
  {
    OFFSET -8.77824 4.35084 1.2192
    CHANNELS 3 Zrotation Xrotation Yrotation
    JOINT rThigh
    {
      OFFSET 0 -1.70687 -2.19456
      CHANNELS 3 Zrotation Xrotation Yrotation
      JOINT rShin
      {
        OFFSET 0 -36.8199 0.73152
        CHANNELS 3 Zrotation Xrotation Yrotation
        JOINT rFoot
        {
          OFFSET 0.73152 -45.1104 -5.12064
          CHANNELS 3 Zrotation Xrotation Yrotation
          End Site
          {
            OFFSET -1.1221 -3.69964 12.103
          }
        }
      }
    }
  }
  JOINT lButtock
  {
    OFFSET 8.77824 4.35084 1.2192
    CHANNELS 3 Zrotation Xrotation Yrotation
    JOINT lThigh
    {
      OFFSET 0 -1.70687 -2.19456
      CHANNELS 3 Zrotation Xrotation Yrotation
      JOINT lShin
      {
        OFFSET 0 -36.8199 0.73152
        CHANNELS 3 Zrotation Xrotation Yrotation
        JOINT lFoot
        {
          OFFSET -0.73152 -45.1104 -5.12064
          CHANNELS 3 Zrotation Xrotation Yrotation
          End Site
          {
            OFFSET 1.1221 -3.69964 12.103
          }
        }
      }
    }
  }
}
MOTION
Frames:	9
Frame Time:	0.00833333
109.101 84.5501 22.9928 0.0 0.0 0.0 -0.735048 -0.00369204 -0.020696 -0.20266 -0.00499191 -0.0351134 -8.23306e-15 7.95139e-16 4.96962e-17 -2.49351e-14 9.54166e-15 1.94126e-16 -0.0 0.0 0.0 -0.0 0.0 0.0 -4.02687e-15 -3.88251e-18 1.98785e-16 -8.59229e-14 -3.72721e-16 9.93923e-16 -1.50127e-12 4.48856e-13 -1.59028e-14 -1.72745e-11 -4.65082e-13 9.22361e-14 -4.07376e-11 -3.20795e-14 1.94014e-13 -7.0369e-11 -5.725e-14 3.35549e-13 -4.0733e-11 -3.22031e-14 1.84472e-13 7.73091 5.47488 0.417314 -4.07391e-11 -3.24019e-14 1.94014e-13 2.90554 0.965183 0.102902 -4.07404e-11 -3.25013e-14 1.94014e-13 10.2786 0.731801 0.0259123 -4.07471e-11 -2.74323e-14 2.06736e-13 2.22167 -0.733487 -0.20892 -4.22297e-15 -3.10601e-18 -9.93923e-17 -8.90561e-14 -1.73937e-16 -7.95139e-16 -1.51474e-12 -4.53428e-13 6.36111e-14 -1.72646e-11 4.37823e-13 3.81667e-14 -4.07409e-11 -3.3011e-14 2.00375e-13 -7.03455e-11 -5.725e-14 3.50656e-13 -4.07453e-11 -3.45885e-14 2.06736e-13 -7.73091 5.47488 -0.417314 -4.07395e-11 -3.39922e-14 2.00375e-13 -2.90554 0.965183 -0.102902 -4.07437e-11 -3.30976e-14 2.01965e-13 -10.2786 0.731801 -0.0259123 -4.07322e-11 -2.94201e-14 1.97194e-13 -2.22167 -0.733487 0.20892 -2.03217e-16 0.0 -3.88251e-19 -0.0341328 -2.1313 -0.0183702 -0.00890172 -1.69205 -0.0750825 -0.522641 3.82302 0.138274 2.03217e-16 0.0 3.88251e-19 -1.08365 -4.91187 0.0910339 0.0012928 3.34449 -0.0026433 0.531464 1.56719 -0.092876
106.926 82.9271 19.1848 1.7354 -78.9712 11.255 -0.944293 1.1751 -0.234861 0.68803 -0.221951 -0.0896504 -2.60568 -0.735951 -0.941216 4.12684 3.63267 -1.78764 -0.0 0.0 0.0 -0.0 0.0 0.0 8.49454e-15 2.31303e-14 1.82001e-14 9.52808 11.7035 16.0478 -9.36978 -6.23119 11.8703 0.00151159 0.871613 0.122448 6.64138e-10 -2.01045e-10 4.20351e-10 1.14923e-09 -3.50004e-10 7.23432e-10 6.64142e-10 -2.01043e-10 4.20337e-10 7.73091 5.47488 0.417314 6.64136e-10 -2.01044e-10 4.20353e-10 2.90554 0.965183 0.102902 6.6414e-10 -2.01044e-10 4.20354e-10 10.2786 0.731801 0.0259123 6.6413e-10 -2.0104e-10 4.20366e-10 2.22167 -0.733487 -0.20892 8.32738e-15 2.31326e-14 1.79007e-14 -13.0793 14.1866 -18.2626 6.64501 -3.73424 -9.48608 -0.0610436 5.48838 -0.758642 -8.68658e-10 -7.23772e-11 -1.00114e-09 -1.51727e-09 -1.32457e-10 -1.71576e-09 -8.68662e-10 -7.23776e-11 -1.00113e-09 -7.73091 5.47488 -0.417314 -8.68657e-10 -7.23779e-11 -1.00114e-09 -2.90554 0.965183 -0.102902 -8.6866e-10 -7.23774e-11 -1.00114e-09 -10.2786 0.731801 -0.0259123 -8.68651e-10 -7.23743e-11 -1.00114e-09 -2.22167 -0.733487 0.20892 -2.03217e-16 0.0 -3.88251e-19 0.705341 -8.06479 -1.12764 0.000747267 5.27019 0.0559079 -0.782157 -0.13968 -3.56174 2.03217e-16 0.0 3.88251e-19 0.442942 -8.9869 -0.0627799 -0.00211632 6.24129 -0.0585453 0.448684 -0.427001 -1.55579
106.851 82.9258 19.1019 1.6738 -79.0596 11.331 -1.15712 2.41763 -0.456058 1.62249 -0.456095 -0.145579 -5.37658 -1.51448 -1.93885 8.73245 7.44617 -3.70471 -0.0 0.0 0.0 -0.0 0.0 0.0 2.18267e-14 4.30226e-14 4.21144e-14 12.4787 20.9452 34.9134 -16.4831 -11.8989 24.8242 -0.000950743 1.77846 0.249943 1.43295e-09 -4.1751e-10 8.83619e-10 2.47947e-09 -7.26958e-10 1.52068e-09 1.43295e-09 -4.17505e-10 8.836e-10 7.73091 5.47488 0.417314 1.43294e-09 -4.17506e-10 8.83623e-10 2.90554 0.965183 0.102902 1.43295e-09 -4.17507e-10 8.83625e-10 10.2786 0.731801 0.0259123 1.43294e-09 -4.17504e-10 8.83637e-10 2.22167 -0.733487 -0.20892 2.16899e-14 4.30265e-14 4.18131e-14 -17.0623 24.2527 -40.5947 12.325 -7.32343 -19.6177 0.0354694 11.309 -1.5872 -1.7896e-09 -1.46954e-10 -2.13352e-09 -3.12703e-09 -2.69609e-10 -3.65684e-09 -1.78961e-09 -1.46954e-10 -2.13351e-09 -7.73091 5.47488 -0.417314 -1.7896e-09 -1.46955e-10 -2.13352e-09 -2.90554 0.965183 -0.102902 -1.7896e-09 -1.46955e-10 -2.13352e-09 -10.2786 0.731801 -0.0259123 -1.7896e-09 -1.46952e-10 -2.13353e-09 -2.22167 -0.733487 0.20892 -2.03217e-16 0.0 -3.88251e-19 1.22561 -14.3291 -2.35189 -0.0242921 12.6294 0.198594 -1.61146 -4.28687 -7.49194 2.03217e-16 0.0 3.88251e-19 2.02732 -13.2944 -0.226564 0.000499615 9.30497 -0.118506 0.250346 -2.53331 -3.104
106.794 82.9206 19.0192 1.6142 -79.0632 11.454 -1.3363 3.53249 -0.664305 2.46817 -0.655865 -0.198735 -7.88959 -2.20547 -2.82551 13.07 10.8552 -5.44994 -0.0 0.0 0.0 -0.0 0.0 0.0 3.35374e-14 6.93987e-14 5.42026e-14 10.1423 23.8732 53.2538 -20.689 -15.4689 36.9427 -0.00665153 2.61479 0.367685 2.07389e-09 -6.03072e-10 1.26066e-09 3.58843e-09 -1.0499e-09 2.16962e-09 2.07389e-09 -6.03065e-10 1.26064e-09 7.73091 5.47488 0.417314 2.07389e-09 -6.03067e-10 1.26067e-09 2.90554 0.965183 0.102902 2.0739e-09 -6.03067e-10 1.26067e-09 10.2786 0.731801 0.0259123 2.07389e-09 -6.03065e-10 1.26069e-09 2.22167 -0.733487 -0.20892 3.34281e-14 6.94039e-14 5.39009e-14 -14.7486 25.0153 -61.8858 16.3487 -9.97598 -28.8739 0.268605 16.4533 -2.36228 -2.52449e-09 -2.17065e-10 -3.00382e-09 -4.4111e-09 -3.97255e-10 -5.14799e-09 -2.52449e-09 -2.17064e-10 -3.0038e-09 -7.73091 5.47488 -0.417314 -2.52449e-09 -2.17066e-10 -3.00382e-09 -2.90554 0.965183 -0.102902 -2.52449e-09 -2.17066e-10 -3.00382e-09 -10.2786 0.731801 -0.0259123 -2.52449e-09 -2.17064e-10 -3.00382e-09 -2.22167 -0.733487 0.20892 -2.03217e-16 0.0 -3.88251e-19 1.45685 -19.9017 -3.52341 -0.07938 19.1944 0.335781 -2.83706 -7.91781 -11.0679 2.03217e-16 0.0 3.88251e-19 3.42784 -17.1366 -0.384497 0.00837673 12.0349 -0.173122 -0.0227326 -4.40233 -4.49483
106.744 82.9132 18.9274 1.5115 -79.092 11.6615 -1.44886 4.32835 -0.839201 3.09276 -0.7697 -0.244951 -9.7062 -2.67989 -3.43296 16.2502 13.2938 -6.68404 -0.0 0.0 0.0 -0.0 0.0 0.0 4.11943e-14 1.11984e-13 3.67255e-14 7.32904 22.172 65.4948 -22.6966 -16.8401 45.716 -0.0131716 3.27488 0.460761 2.39517e-09 -7.11377e-10 1.42216e-09 4.14416e-09 -1.2378e-09 2.44783e-09 2.39517e-09 -7.1137e-10 1.42213e-09 7.73091 5.47488 0.417314 2.39517e-09 -7.11371e-10 1.42216e-09 2.90554 0.965183 0.102902 2.39519e-09 -7.11372e-10 1.42217e-09 10.2786 0.731801 0.0259123 2.39517e-09 -7.11371e-10 1.42218e-09 2.22167 -0.733487 -0.20892 4.11052e-14 1.11991e-13 3.64273e-14 -12.8953 20.3747 -74.5878 18.6753 -11.4316 -35.5533 0.512685 19.9184 -2.91912 -2.79424e-09 -2.76011e-10 -3.21889e-09 -4.88095e-09 -5.01138e-10 -5.51435e-09 -2.79424e-09 -2.76009e-10 -3.21887e-09 -7.73091 5.47488 -0.417314 -2.79424e-09 -2.76011e-10 -3.21888e-09 -2.90554 0.965183 -0.102902 -2.79424e-09 -2.76012e-10 -3.21888e-09 -10.2786 0.731801 -0.0259123 -2.79424e-09 -2.7601e-10 -3.21889e-09 -2.22167 -0.733487 0.20892 -2.03217e-16 0.0 -3.88251e-19 1.49325 -23.7728 -4.40049 -0.138225 23.774 0.44087 -3.97437 -10.4097 -13.6328 2.03217e-16 0.0 3.88251e-19 4.41552 -19.8158 -0.516048 0.0170563 13.9303 -0.211978 -0.266727 -5.69117 -5.47764
106.698 82.9045 18.8196 0.7207 -79.1181 12.5696 -1.47282 4.67359 -0.96301 3.40086 -0.751376 -0.280652 -10.5297 -2.87701 -3.65117 17.6021 14.4082 -7.14534 -0.0 0.0 0.0 -0.0 0.0 0.0 4.60693e-14 2.32075e-13 -4.68895e-14 6.12741 20.6849 69.8362 -23.3895 -17.1752 49.3944 -0.0181257 3.74327 0.526874 2.28546e-09 -6.9997e-10 1.28338e-09 3.95386e-09 -1.21628e-09 2.21005e-09 2.28546e-09 -6.99963e-10 1.28335e-09 7.73091 5.47488 0.417314 2.28546e-09 -6.99965e-10 1.28338e-09 2.90554 0.965183 0.102902 2.28547e-09 -6.99966e-10 1.28339e-09 10.2786 0.731801 0.0259123 2.28545e-09 -6.99965e-10 1.2834e-09 2.22167 -0.733487 -0.20892 4.59892e-14 2.32082e-13 -4.71799e-14 -12.3185 17.5763 -78.6055 19.5792 -11.9933 -38.4454 0.612659 21.0319 -3.10685 -2.37367e-09 -3.62991e-10 -2.35683e-09 -4.14086e-09 -6.46456e-10 -4.03013e-09 -2.37367e-09 -3.62988e-10 -2.35681e-09 -7.73091 5.47488 -0.417314 -2.37367e-09 -3.6299e-10 -2.35682e-09 -2.90554 0.965183 -0.102902 -2.37367e-09 -3.62991e-10 -2.35682e-09 -10.2786 0.731801 -0.0259123 -2.37367e-09 -3.6299e-10 -2.35683e-09 -2.22167 -0.733487 0.20892 -2.03217e-16 0.0 -3.88251e-19 1.51629 -25.2933 -4.76669 -0.166427 25.5775 0.485557 -4.50117 -11.4282 -14.6675 2.03217e-16 0.0 3.88251e-19 4.85067 -20.8842 -0.607765 0.0211962 14.6613 -0.227272 -0.373003 -6.18008 -5.87055
106.629 82.9011 18.7285 -0.3732 -79.0581 13.6739 -1.43607 4.69721 -1.05025 3.48343 -0.639218 -0.30888 -10.6385 -2.87535 -3.59087 17.5917 14.5851 -7.03645 -0.0 0.0 0.0 -0.0 0.0 0.0 4.88195e-14 4.04917e-13 -1.76567e-13 5.93717 20.8915 69.3189 -23.4484 -17.3649 49.4171 -0.0212748 4.07211 0.57331 1.8671e-09 -6.03604e-10 9.3005e-10 3.22932e-09 -1.04616e-09 1.60356e-09 1.86711e-09 -6.03599e-10 9.30027e-10 7.73091 5.47488 0.417314 1.8671e-09 -6.03601e-10 9.30056e-10 2.90554 0.965183 0.102902 1.86711e-09 -6.03602e-10 9.30057e-10 10.2786 0.731801 0.0259123 1.8671e-09 -6.036e-10 9.30069e-10 2.22167 -0.733487 -0.20892 4.87404e-14 4.04925e-13 -1.76847e-13 -11.9702 17.9053 -78.0541 19.6709 -12.1543 -38.5959 0.574493 20.4683 -3.01447 -1.46189e-09 -4.67915e-10 -7.32997e-10 -2.53988e-09 -8.17815e-10 -1.23721e-09 -1.46189e-09 -4.67913e-10 -7.32978e-10 -7.73091 5.47488 -0.417314 -1.46188e-09 -4.67915e-10 -7.32991e-10 -2.90554 0.965183 -0.102902 -1.46189e-09 -4.67915e-10 -7.32994e-10 -10.2786 0.731801 -0.0259123 -1.46188e-09 -4.67914e-10 -7.33002e-10 -2.22167 -0.733487 0.20892 -2.03217e-16 0.0 -3.88251e-19 1.59656 -25.1402 -4.73129 -0.16327 25.398 0.482058 -4.47541 -11.43 -14.5773 2.03217e-16 0.0 3.88251e-19 4.89785 -20.8012 -0.667986 0.0207522 14.5604 -0.225308 -0.358449 -6.10033 -5.83897
106.534 82.9054 18.6769 -0.1523 -78.9253 13.4216 -1.38077 4.5988 -1.12874 3.48768 -0.508491 -0.33538 -10.4542 -2.75528 -3.41453 17.0082 14.3785 -6.6968 -0.0 0.0 0.0 -0.0 0.0 0.0 4.60905e-14 5.11159e-13 -2.85076e-13 6.11853 21.7934 66.8648 -23.2803 -17.5415 47.9792 -0.0226751 4.25713 0.599433 1.29885e-09 -4.9174e-10 4.88491e-10 2.24553e-09 -8.49164e-10 8.44696e-10 1.29885e-09 -4.91737e-10 4.88471e-10 7.73091 5.47488 0.417314 1.29884e-09 -4.91739e-10 4.88496e-10 2.90554 0.965183 0.102902 1.29885e-09 -4.9174e-10 4.88496e-10 10.2786 0.731801 0.0259123 1.29884e-09 -4.91738e-10 4.88508e-10 2.22167 -0.733487 -0.20892 4.60107e-14 5.11168e-13 -2.85342e-13 -11.7608 19.4678 -75.6122 19.4544 -12.1745 -37.639 0.487682 19.2481 -2.81525 -4.16194e-10 -5.10153e-10 9.39838e-10 -7.06547e-10 -8.80059e-10 1.63781e-09 -4.16198e-10 -5.10151e-10 9.39856e-10 -7.73091 5.47488 -0.417314 -4.16193e-10 -5.10152e-10 9.39844e-10 -2.90554 0.965183 -0.102902 -4.16202e-10 -5.10152e-10 9.39841e-10 -10.2786 0.731801 -0.0259123 -4.16188e-10 -5.10151e-10 9.39832e-10 -2.22167 -0.733487 0.20892 -2.03217e-16 0.0 -3.88251e-19 1.70405 -24.3007 -4.50451 -0.147454 24.4204 0.459341 -4.22924 -11.0186 -14.0537 2.03217e-16 0.0 3.88251e-19 4.78693 -20.2304 -0.706842 0.0184919 14.1207 -0.216402 -0.296758 -5.78875 -5.64894
106.45 82.9119 18.6613 1.1659 -78.7869 12.1419 -1.34771 4.57791 -1.22642 3.56069 -0.434459 -0.365897 -10.3989 -2.59713 -3.28468 16.6478 14.3415 -6.46905 -0.0 0.0 0.0 -0.0 0.0 0.0 3.45282e-14 4.31452e-13 -3.05184e-13 6.0429 22.341 65.3634 -23.2378 -17.737 47.2813 -0.0226677 4.29402 0.604629 7.39425e-10 -4.33837e-10 8.50226e-11 1.27745e-09 -7.47023e-10 1.49784e-10 7.39428e-10 -4.33835e-10 8.50035e-11 7.73091 5.47488 0.417314 7.39425e-10 -4.33838e-10 8.50258e-11 2.90554 0.965183 0.102902 7.39427e-10 -4.33838e-10 8.50242e-11 10.2786 0.731801 0.0259123 7.39416e-10 -4.33836e-10 8.50353e-11 2.22167 -0.733487 -0.20892 3.44523e-14 4.3146e-13 -3.05433e-13 -11.629 20.3392 -73.9192 19.3896 -12.263 -37.2181 0.4337 18.3922 -2.67843 4.0609e-10 -4.09071e-10 1.94892e-09 7.30584e-10 -6.98036e-10 3.36831e-09 4.06086e-10 -4.09069e-10 1.94893e-09 -7.73091 5.47488 -0.417314 4.06091e-10 -4.0907e-10 1.94892e-09 -2.90554 0.965183 -0.102902 4.0608e-10 -4.0907e-10 1.94892e-09 -10.2786 0.731801 -0.0259123 4.06097e-10 -4.09068e-10 1.94891e-09 -2.22167 -0.733487 0.20892 -2.03217e-16 0.0 -3.88251e-19 1.80357 -23.761 -4.29924 -0.138279 23.8297 0.446696 -4.10564 -10.7941 -13.7916 2.03217e-16 0.0 3.88251e-19 4.74422 -19.8352 -0.735786 0.0172262 13.8353 -0.210884 -0.262364 -5.58203 -5.56657
